<?xml version="1.0" encoding="UTF-8"?>
<svg version="1.1" xmlns="http://www.w3.org/2000/svg" width="200" height="191">
<path d="M0 0 C1.40543151 -0.00571232 2.8108584 -0.01267989 4.21627808 -0.02079773 C8.00968454 -0.03864731 11.80285866 -0.03757659 15.5962944 -0.03185534 C18.7721639 -0.02875218 21.9479895 -0.03486829 25.12385273 -0.04089409 C32.61938994 -0.05491018 40.11481309 -0.05340184 47.61035156 -0.04199219 C55.32500502 -0.03050802 63.03931096 -0.04459815 70.75391865 -0.07138866 C77.3962488 -0.09358579 84.03847018 -0.1001742 90.68083477 -0.09431225 C94.63985717 -0.09095174 98.59865675 -0.09329734 102.55764771 -0.11056328 C106.28101178 -0.12609518 110.00386291 -0.12200857 113.72720718 -0.10325813 C115.73284975 -0.09784996 117.73851571 -0.11203783 119.74411011 -0.12695312 C129.4615729 -0.04804101 137.11273341 1.86351021 144.3451767 8.60757542 C150.92810224 16.20218539 151.62281916 24.18765654 151.51757812 33.88085938 C151.52312714 35.1943486 151.52867615 36.50783783 151.53439331 37.86112976 C151.54854014 41.43569248 151.53168154 45.00947655 151.50810814 48.58396459 C151.48787063 52.34067568 151.49388528 56.09735847 151.49621582 59.85411072 C151.49616239 66.15938011 151.47649124 72.46434839 151.44433594 78.76953125 C151.40743338 86.04054151 151.39866415 93.31115801 151.40563345 100.5822497 C151.41195629 107.60248336 151.40115235 114.62258322 151.38166809 121.64278984 C151.37353186 124.61904253 151.37077752 127.59522647 151.37236023 130.57148933 C151.37340894 134.7334055 151.34913747 138.89481111 151.32226562 143.05664062 C151.32519623 144.28027313 151.32812683 145.50390564 151.33114624 146.76461792 C151.24376351 155.55883259 150.37239614 163.45681356 144.27734375 170.21655273 C143.66632813 170.92424805 143.0553125 171.63194336 142.42578125 172.36108398 C134.50856078 178.77084606 126.38639852 178.98459646 116.52929688 178.92163086 C115.09430738 178.92706028 113.65932347 178.93418753 112.22434998 178.94287109 C108.35029454 178.96101023 104.47666816 178.95407628 100.60260582 178.94135475 C96.53490477 178.93117795 92.46723873 178.94063336 88.39953613 178.94689941 C81.57049004 178.95416227 74.74161738 178.94462404 67.91259766 178.92553711 C60.03433917 178.9037709 52.15649486 178.91082324 44.2782464 178.93284273 C37.49577892 178.95103571 30.71343561 178.95353607 23.9309516 178.94308805 C19.88810793 178.93687447 15.8454585 178.93595828 11.80262756 178.94923401 C8.00045086 178.96084894 4.19880448 178.95266505 0.39668465 178.92965698 C-0.9927832 178.9243998 -2.38229623 178.92583206 -3.77174568 178.93470764 C-13.35355341 178.99023876 -20.65422021 177.92110471 -28.41015625 172.09155273 C-34.08744108 166.41426791 -36.20735823 160.69088163 -36.2515564 152.75131226 C-36.26015686 151.59911194 -36.26875732 150.44691162 -36.27761841 149.25979614 C-36.28187836 147.99948578 -36.28613831 146.73917542 -36.29052734 145.44067383 C-36.29843327 144.09671825 -36.30670252 142.75276476 -36.31530762 141.40881348 C-36.34147581 136.99839287 -36.35683223 132.58796303 -36.37109375 128.17749023 C-36.37645598 126.65593078 -36.3818335 125.13437139 -36.3872261 123.61281204 C-36.40884914 117.28013365 -36.42758304 110.94745776 -36.4388485 104.61475182 C-36.45507006 95.55734201 -36.48821039 86.50036233 -36.54524934 77.44311464 C-36.58403792 71.06501121 -36.60349181 64.68702238 -36.60876906 58.30880415 C-36.61241099 54.50438342 -36.62430718 50.70042199 -36.6568718 46.89612961 C-36.68710964 43.31232721 -36.69320932 39.72925824 -36.68148804 36.14535522 C-36.68116468 34.21732683 -36.7055265 32.28934262 -36.73086548 30.36148071 C-36.66112662 20.56004789 -34.40624093 13.42896155 -27.34765625 6.46655273 C-19.66662901 -0.32948659 -9.68084078 -0.03352263 0 0 Z M18.90234375 9.40405273 C17.93039063 10.15170898 16.9584375 10.89936523 15.95703125 11.66967773 C5.06261018 21.5878962 -2.18438353 32.03199283 -8.09765625 45.40405273 C-8.6390625 46.6222168 -8.6390625 46.6222168 -9.19140625 47.86499023 C-16.32379777 66.48053211 -13.44545272 88.48531504 -5.67578125 106.31811523 C-1.54562345 114.39441389 3.77740972 121.90943209 10.4921875 128.03686523 C11.90234375 129.40405273 11.90234375 129.40405273 13.90234375 132.40405273 C13.7880556 138.3470366 11.99345566 142.24873055 7.90234375 146.40405273 C5.3025028 148.36387168 2.6586361 150.17266623 -0.0859375 151.92358398 C-1.08173828 152.65641602 -1.08173828 152.65641602 -2.09765625 153.40405273 C-2.09765625 154.06405273 -2.09765625 154.72405273 -2.09765625 155.40405273 C9.32327067 155.94561407 19.47997964 155.61962293 30.45629883 152.18261719 C38.0889148 149.81927821 44.05423611 149.97318608 51.64941406 152.18359375 C78.85454411 160.01448906 105.09852153 155.69639041 129.73828125 142.93530273 C136.65068374 139.01027924 143.27516976 134.03122672 148.90234375 128.40405273 C149.00851141 127.03550668 149.0463765 125.66157819 149.0562439 124.28895569 C149.06484436 123.40171814 149.07344482 122.51448059 149.08230591 121.60035706 C149.08656586 120.61913376 149.09082581 119.63791046 149.09521484 118.62695312 C149.10339233 117.59923798 149.11156982 116.57152283 149.11999512 115.51266479 C149.14491827 112.09235219 149.16138796 108.67208146 149.17578125 105.25170898 C149.18376677 103.5010806 149.18376677 103.5010806 149.1919136 101.71508598 C149.21868261 95.53092988 149.23804043 89.34679417 149.25244141 83.16259766 C149.26904562 76.78374506 149.31377776 70.40541352 149.36481285 64.02675724 C149.39854102 59.11695287 149.41002538 54.20727086 149.41566849 49.29736137 C149.42237175 46.94711796 149.43756954 44.59688232 149.4615593 42.24675179 C149.49331447 38.94597793 149.49323072 35.64659076 149.48583984 32.34570312 C149.50224518 31.38269791 149.51865051 30.41969269 149.53555298 29.42750549 C149.46594909 21.79130132 147.35661128 15.2463488 142.17610741 9.48390293 C135.55640439 3.15178554 127.87866901 1.9545077 119.08081055 1.95239258 C117.65715683 1.93486938 117.65715683 1.93486938 116.20474243 1.91699219 C113.08691126 1.88357229 109.9695567 1.87268662 106.8515625 1.86499023 C104.66974222 1.85279781 102.48792357 1.84031142 100.30610657 1.82754517 C95.73927055 1.80511201 91.17260089 1.79551955 86.60571289 1.79321289 C80.77497882 1.7879318 74.94564136 1.73659262 69.11528301 1.67369652 C64.61030209 1.63268845 60.10565468 1.62356963 55.60050392 1.62309647 C53.45202532 1.61773593 51.30354185 1.60097526 49.15524864 1.57224655 C32.69969089 1.23546416 32.69969089 1.23546416 18.90234375 9.40405273 Z " fill="#FFFFFF" transform="translate(42.09765625,5.595947265625)"/>
<path d="M0 0 C1.28519531 -0.00257812 2.57039063 -0.00515625 3.89453125 -0.0078125 C4.89734131 -0.00152832 4.89734131 -0.00152832 5.92041016 0.00488281 C7.96156547 0.01558732 10.00184075 0.00497837 12.04296875 -0.0078125 C13.32816406 -0.00523438 14.61335938 -0.00265625 15.9375 0 C17.11763672 0.00225586 18.29777344 0.00451172 19.51367188 0.00683594 C22.46875 0.265625 22.46875 0.265625 25.46875 2.265625 C26.16003569 6.7290444 25.77939154 8.76627598 23.37890625 12.625 C22.44687552 13.7694238 21.49667982 14.89923243 20.53125 16.015625 C20.03778076 16.6132666 19.54431152 17.2109082 19.03588867 17.82666016 C18.02250944 19.05143808 17.00205062 20.27039271 15.97460938 21.48339844 C14.54147722 23.1795503 13.13324858 24.89273174 11.734375 26.6171875 C9.65764914 29.17671906 7.5685993 31.72506659 5.46875 34.265625 C7.34820312 34.30429688 7.34820312 34.30429688 9.265625 34.34375 C10.91670123 34.40003669 12.56774155 34.4573839 14.21875 34.515625 C15.45625 34.53689453 15.45625 34.53689453 16.71875 34.55859375 C22.85171349 34.80589066 22.85171349 34.80589066 26.04296875 37.18359375 C27.46875 39.265625 27.46875 39.265625 27.53125 41.328125 C26.01828532 44.0870606 24.26702112 44.86916512 21.46875 46.265625 C18.59375 46.63793945 18.59375 46.63793945 15.46875 46.62890625 C14.334375 46.62826172 13.2 46.62761719 12.03125 46.62695312 C10.855625 46.61083984 9.68 46.59472656 8.46875 46.578125 C6.7053125 46.58295898 6.7053125 46.58295898 4.90625 46.58789062 C-4.63098263 46.52828292 -4.63098263 46.52828292 -9.53125 44.265625 C-10.57063965 40.05530549 -10.97069485 38.04181298 -8.79296875 34.1953125 C-7.94347656 33.18726563 -7.09398437 32.17921875 -6.21875 31.140625 C-5.29757689 30.02002436 -4.37702327 28.89891425 -3.45703125 27.77734375 C-2.73700928 26.91955322 -2.73700928 26.91955322 -2.00244141 26.04443359 C0.44905449 23.08034479 2.76414943 20.0132402 5.09375 16.953125 C5.93947917 15.8523841 6.78577501 14.7520782 7.6328125 13.65234375 C8.23867187 12.86472656 8.84453125 12.07710937 9.46875 11.265625 C7.66277344 11.19214844 7.66277344 11.19214844 5.8203125 11.1171875 C4.24476802 11.04216157 2.66924834 10.96661367 1.09375 10.890625 C0.2996875 10.8596875 -0.494375 10.82875 -1.3125 10.796875 C-7.3046875 10.4921875 -7.3046875 10.4921875 -9.53125 8.265625 C-9.84375 5.265625 -9.84375 5.265625 -9.53125 2.265625 C-5.93534475 -0.13164517 -4.27248429 0.00816696 0 0 Z " fill="#FFFFFF" transform="translate(65.53125,56.734375)"/>
<path d="M0 0 C1.12921875 0.14888672 1.12921875 0.14888672 2.28125 0.30078125 C4.5 0.6875 4.5 0.6875 6.71875 1.29296875 C7.3065625 1.42316406 7.894375 1.55335937 8.5 1.6875 C8.83 1.3575 9.16 1.0275 9.5 0.6875 C12.9375 0.9375 12.9375 0.9375 16.5 1.6875 C18.7974956 5.13374339 18.75688811 6.46812193 18.765625 10.52734375 C18.76949219 12.2453418 18.76949219 12.2453418 18.7734375 13.99804688 C18.76570313 15.19494141 18.75796875 16.39183594 18.75 17.625 C18.76160156 19.41454102 18.76160156 19.41454102 18.7734375 21.24023438 C18.77085938 22.38685547 18.76828125 23.53347656 18.765625 24.71484375 C18.76336914 25.76406006 18.76111328 26.81327637 18.75878906 27.89428711 C18.49757641 30.71365877 18.10502381 32.36722314 16.5 34.6875 C13.625 35.5625 13.625 35.5625 10.5 35.6875 C9.84 35.31625 9.18 34.945 8.5 34.5625 C7.51 34.129375 7.51 34.129375 6.5 33.6875 C5.571875 34.161875 4.64375 34.63625 3.6875 35.125 C-0.30477923 37.08199962 -2.23905898 36.77210317 -6.5 35.6875 C-11.38219554 33.41671138 -14.10683791 30.12553366 -16.75 25.5 C-18.20908791 20.02842034 -18.19694317 14.73961045 -16.375 9.375 C-12.46199932 3.76636569 -7.14386905 -1.01531016 0 0 Z M-4.3125 11.75 C-6.48958673 15.30208887 -6.85069563 19.02169576 -6 23.0625 C-4.45915406 25.01782893 -4.45915406 25.01782893 -1.125 25.625 C2.36284518 25.89909779 2.36284518 25.89909779 4.9375 24.8125 C7.11410808 21.85231301 6.93958828 19.44047025 6.93359375 15.84375 C6.4018223 13.19926497 5.64292806 12.2909144 3.5 10.6875 C0.40953021 10.30119128 -1.58912093 10.1535364 -4.3125 11.75 Z " fill="#FFFFFF" transform="translate(108.5,67.3125)"/>
<path d="M0 0 C4.2896695 3.67685958 7.35395513 6.92970039 7.828125 12.73828125 C7.92066383 18.31374548 7.98076823 22.55192448 4.625 27.25 C0.37453596 31.40600928 -3.46636279 34.25693021 -9.578125 34.24609375 C-15.95631557 33.7497776 -19.91705822 32.08879583 -24.125 27.1875 C-28.27602248 21.76810954 -27.85609599 16.9241135 -27.375 10.25 C-25.42730615 4.61193884 -22.02811388 0.6074071 -16.6875 -2.125 C-10.69661111 -3.25535639 -5.4345573 -2.8179186 0 0 Z M-15.3125 9.8125 C-16.78782332 13.19706527 -16.83174603 15.59603178 -16.375 19.25 C-14.97814994 21.8969872 -14.97814994 21.8969872 -12.375 23.25 C-8.74260187 23.4216367 -8.74260187 23.4216367 -5.375 22.25 C-3.40412033 19.93635865 -3.37725133 18.27161273 -3.0625 15.25 C-3.41990054 11.81895479 -3.72494311 10.47262836 -6.375 8.25 C-11.20238082 7.55698414 -11.20238082 7.55698414 -15.3125 9.8125 Z " fill="#FFFFFF" transform="translate(171.375,69.75)"/>
<path d="M0 0 C3.5 0.25 3.5 0.25 5.5 2.25 C5.76069641 4.14073181 5.76069641 4.14073181 5.7746582 6.46850586 C5.78419022 7.33958481 5.79372223 8.21066376 5.80354309 9.10813904 C5.80263168 10.05085159 5.80172028 10.99356415 5.80078125 11.96484375 C5.80506638 12.93152481 5.8093515 13.89820587 5.81376648 14.8941803 C5.81951612 16.94108293 5.8200054 18.98800599 5.81567383 21.03491211 C5.81251619 24.17141513 5.83595722 27.30697324 5.86132812 30.44335938 C5.86360123 32.42968631 5.86430456 34.41601578 5.86328125 36.40234375 C5.872491 37.34303207 5.88170074 38.2837204 5.89118958 39.25291443 C5.88496078 40.12714554 5.87873199 41.00137665 5.87231445 41.90209961 C5.87294388 42.67106064 5.8735733 43.44002167 5.8742218 44.23228455 C5.39898324 46.7946585 4.54703717 47.68092809 2.5 49.25 C0 49.625 0 49.625 -2.5 49.25 C-4.54703717 47.68092809 -5.39898324 46.7946585 -5.8742218 44.23228455 C-5.87359238 43.46332352 -5.87296295 42.69436249 -5.87231445 41.90209961 C-5.87854324 41.0278685 -5.88477203 40.15363739 -5.89118958 39.25291443 C-5.88197983 38.3122261 -5.87277008 37.37153778 -5.86328125 36.40234375 C-5.86377975 35.43470596 -5.86427826 34.46706818 -5.86479187 33.47010803 C-5.86245144 31.42495672 -5.85272478 29.37980253 -5.83618164 27.3347168 C-5.8125654 24.19619134 -5.81562388 21.05851372 -5.82226562 17.91992188 C-5.81668978 15.93489075 -5.80958049 13.94986321 -5.80078125 11.96484375 C-5.80169266 11.0221312 -5.80260406 10.07941864 -5.80354309 9.10813904 C-5.79401108 8.23706009 -5.78447906 7.36598114 -5.7746582 6.46850586 C-5.77005081 5.70034042 -5.76544342 4.93217499 -5.76069641 4.14073181 C-5.24070906 0.36946155 -3.53974937 0.25283924 0 0 Z " fill="#FFFFFF" transform="translate(135.5,53.75)"/>
</svg>
